# xmcd
#
# Track frame offsets:
#	150
#	4710
#	30682
#	46011
#	70247
#	74925
#	88568
#	102533
#	119849
#	129004
#	143354
#
# Disc length: 2143 seconds
#
# Revision: 0
# Processed by: cddbd v1.5.2PL0 Copyright (c) Steve Scherf et al.
# Submitted via: dBpowerAMP V4.0
#
DISCID=95085d0b
DTITLE=Ty Herndon - A Ty Herndon Christmas
DYEAR=2007
DGENRE=Christmas
TTITLE0=Oh Come All Ye Faithful (Acapella)
TTITLE1=Oh Come All Ye Faithful
TTITLE2=Go Tell It On The Mountain
TTITLE3=O Come O Come Emmanuel
TTITLE4=We Three Kings
TTITLE5=O Little Town Of Bethlehem
TTITLE6=Little Drummer Boy
TTITLE7=Silent Night
TTITLE8=Rudolph The Red Nosed Reindeer
TTITLE9=Oh Holy Night
TTITLE10=A Not So Silent Night
EXTD=
EXTT0=
EXTT1=
EXTT2=
EXTT3=
EXTT4=
EXTT5=
EXTT6=
EXTT7=
EXTT8=
EXTT9=
EXTT10=
PLAYORDER=
